<?xml version="1.0"?>
<svg xmlns="http://www.w3.org/2000/svg" id="Capa_1" enable-background="new 0 0 512 512" height="512px" viewBox="0 0 512 512" width="512px" class=""><g><g><path d="m437.019 74.98c-48.352-48.352-112.639-74.98-181.019-74.98s-132.667 26.628-181.019 74.98c-48.353 48.353-74.981 112.64-74.981 181.02s26.628 132.667 74.981 181.02c48.352 48.352 112.639 74.98 181.019 74.98s132.667-26.628 181.019-74.98c48.353-48.353 74.981-112.64 74.981-181.02s-26.628-132.667-74.981-181.02zm-184.627 406.872c-51.983-.823-103.726-19.423-145.231-55.799l148.839-148.84 21.744 21.745c-19.59 23.899-31.863 53.68-35.712 87.017-3.523 30.502.06 63.285 10.36 95.877zm46.715-161.532 105.732 105.732c-35.135 30.793-77.604 48.859-121.35 54.174-21.372-60.755-15.474-119.905 15.618-159.906zm21.213-21.213c40.001-31.092 99.151-36.99 159.906-15.618-5.315 43.745-23.381 86.215-54.174 121.35zm161.531-46.715c-32.592-10.3-65.374-13.882-95.877-10.359-33.336 3.85-63.118 16.123-87.017 35.712l-21.744-21.745 148.839-148.839c36.376 41.505 54.977 93.247 55.799 145.231zm-290.171-39.499c-40.001 31.092-99.15 36.99-159.906 15.618 5.315-43.745 23.381-86.215 54.174-121.35zm-84.519-126.945c35.135-30.793 77.605-48.859 121.35-54.174 21.372 60.755 15.474 119.905-15.618 159.906zm162.807 40.077c3.523-30.503-.06-63.285-10.36-95.877 51.983.823 103.726 19.423 145.231 55.799l-148.839 148.84-21.744-21.745c19.589-23.898 31.862-53.68 35.712-87.017zm-239.819 133.573c24.452 7.727 49.008 11.687 72.632 11.687 7.863 0 15.627-.437 23.245-1.316 33.337-3.85 63.118-16.123 87.017-35.712l21.744 21.743-148.839 148.839c-36.378-41.508-54.979-93.255-55.799-145.241z" data-original="#000000" class="active-path" data-old_color="#000000" fill="#E3E9ED"/></g></g> </svg>
